<svg xmlns="http://www.w3.org/2000/svg" viewBox="0 0 16 16"><path d="M14.596 12.014H1.404a.291.291 0 0 0-.205.497l2.657 2.658A2.836 2.836 0 0 0 5.862 16h4.274c.752 0 1.474-.299 2.006-.831L14.8 12.51a.291.291 0 0 0-.204-.497zM11.929 7.137h-1.321v-.653h1.002c.21-.018.38-.18.406-.389V4.76a.472.472 0 0 0-.493-.423H9.99v5.1h1.956a.618.618 0 0 0 .497-.503V7.648a.614.614 0 0 0-.514-.511z"/><path d="M15.264 3.947l-3.21-3.21A2.525 2.525 0 0 0 10.277 0H5.728C5.061 0 4.422.265 3.95.736L.739 3.947A2.525 2.525 0 0 0 0 5.728v4.713c0 .557.452 1.01 1.01 1.01H14.988c.559 0 1.012-.453 1.012-1.012v-4.71c0-.668-.265-1.309-.736-1.782zm-9.167 6.148s.064-.138-.095-.552l-.485-1.262H3.862V7.63h1.425L4.207 4.8 2.46 9.602a.873.873 0 0 0-.017.493H1.418c.049 0 .194-.091.389-.65l2.041-5.793h1.36l2.366 6.091s.12.311.25.352H6.097zm2.015-2.94H7.16V6.5h.952v.653zm5.691 1.815c0 .622-.504 1.127-1.127 1.127H8.494c.194-.194.159-.65.159-.65V4.488c0-.662-.212-.837-.212-.837h4.003A1.06 1.06 0 0 1 13.45 4.71v1.18a.837.837 0 0 1-.836.839h-.002.09c.606-.002 1.1.487 1.101 1.093V8.97z"/></svg>